{"title":"Snowpiercer 2013 DVDrip English Klam","uid":9896447,"size":1494857419,"categoryP":"video","categoryS":"movies","magnet":"?xt=urn:btih:cc910d88472b51b872749139389fe828c2867eb7&amp;dn=Snowpiercer+2013+DVDrip+English+Klam&amp;tr=udp%3A%2F%2Ftracker.openbittorrent.com%3A80&amp;tr=udp%3A%2F%2Fopen.demonii.com%3A1337&amp;tr=udp%3A%2F%2Ftracker.coppersurfer.tk%3A6969&amp;tr=udp%3A%2F%2Fexodus.desync.com%3A6969","seeders":1,"leechers":0,"uploader":"Klambake","files":-1,"time":1396716611,"description":"With: Chris Evans, Tilda Swinton and Kang-ho Song\n\nHet is het jaar 2031 in een post-apocalyptisch tijdperk. Na een mislukt experiment om de opwarming van de aarde te stoppen zorgt een ijstijd er voor dat alle mensen op aarde sterven, behalve de bewoners van de 'Snow Piercer'. Deze trein, aangedreven door een uit zichzelf bewegende motor die nooit stopt, reist de koude wereld rond met aan boord een groep overlevenden. De trein is opgedeeld in verschillende klassen wat er voor zorgt dat er aan boord een revolutie ontstaat.\n\nIn a future where a failed global-warming experiment kills off most life on the planet, a class system evolves aboard the Snowpiercer, a train that travels around the globe via a perpetual-motion engine.\n &lt;a href=&quot;\nhttp://www.imdb.com/title/tt1706620&quot; rel=&quot;nofollow&quot; target=&quot;_NEW&quot;&gt;\nhttp://www.imdb.com/title/tt1706620&lt;/a&gt;\t\n\n--------------------- Dutch Friends 4ever ---------------------\n---------------------------------------------------------------\n- Bezoek ook eens mijn vrienden op: &lt;a href=&quot; http://www.Film-Test.nl&quot; rel=&quot;nofollow&quot; target=&quot;_NEW&quot;&gt; http://www.Film-Test.nl&lt;/a&gt; --\n----- voor mijn Nederlandse Sync. ondertitels ---- en meer ----\n------- http://www.Film-Test.nl ---- Over Films en meer -------\n---------------------------------------------------------------\n\nGeneral:\n\nComplete name                            : KlambakeSnowpiercerSnowpiercer.avi\nFormat                                   : AVI\nFormat/Info                              : Audio Video Interleave\nFile size                                : 1.39 GiB\nDuration                                 : 2h 5mn\nOverall bit rate                         : 1 583 Kbps\n\nVideo:\n\nFormat                                   : MPEG-4 Visual\nFormat profile                           : Simple@L3\nFormat settings, BVOP                    : No\nFormat settings, QPel                    : No\nFormat settings, GMC                     : No warppoints\nFormat settings, Matrix                  : Default (H.263)\nCodec ID                                 : XVID\nCodec ID/Hint                            : XviD\nDuration                                 : 2h 5mn\nBit rate                                 : 1 380 Kbps\nWidth                                    : 652 pixels\nHeight                                   : 352 pixels\nDisplay aspect ratio                     : 1.85:1\nFrame rate                               : 25.000 fps\nColor space                              : YUV\nChroma subsampling                       : 4:2:0\nBit depth                                : 8 bits\nScan type                                : Progressive\nCompression mode                         : Lossy\nBits/(Pixel*Frame)                       : 0.241\nStream size                              : 1.21 GiB (87%)\nWriting library                          : XviD 1.1.2 (UTC 2006-11-01)\n\nAudio:\n\nFormat                                   : AC-3\nFormat/Info                              : Audio Coding 3\nMode extension                           : CM (complete main)\nFormat settings, Endianness              : Big\nCodec ID                                 : 2000\nDuration                                 : 2h 5mn\nSource duration                          : 2h 5mn\nBit rate mode                            : Constant\nBit rate                                 : 192 Kbps\nChannel(s)                               : 2 channels\nChannel positions                        : Front: L R\nSampling rate                            : 48.0 KHz\nBit depth                                : 16 bits\nCompression mode                         : Lossy\nStream size                              : 173 MiB (12%)\nAlignment                                : Aligned on interleaves\nInterleave, duration                     : 32 ms (0.80 video frame)\nInterleave, preload duration             : 1120 ms\n\n","torrent":{"xt":"urn:btih:cc910d88472b51b872749139389fe828c2867eb7","amp;dn":"Snowpiercer+2013+DVDrip+English+Klam","amp;tr":["udp%3A%2F%2Ftracker.openbittorrent.com%3A80","udp%3A%2F%2Fopen.demonii.com%3A1337","udp%3A%2F%2Ftracker.coppersurfer.tk%3A6969","udp%3A%2F%2Fexodus.desync.com%3A6969"],"infoHash":"cc910d88472b51b872749139389fe828c2867eb7","infoHashBuffer":{"type":"Buffer","data":[204,145,13,136,71,43,81,184,114,116,145,57,56,159,232,40,194,134,126,183]},"announce":[],"urlList":[]}}